<?xml version="1.0" standalone="no"?>
<!DOCTYPE svg PUBLIC "-//W3C//DTD SVG 20010904//EN"
 "http://www.w3.org/TR/2001/REC-SVG-20010904/DTD/svg10.dtd">
<svg version="1.0" xmlns="http://www.w3.org/2000/svg"
 width="512.000000pt" height="512.000000pt" viewBox="0 0 512.000000 512.000000"
 preserveAspectRatio="xMidYMid meet">
<metadata>
Created by potrace 1.14, written by Peter Selinger 2001-2017
</metadata>
<g transform="translate(0.000000,512.000000) scale(0.100000,-0.100000)"
fill="#000000" stroke="none">
<path d="M2369 5116 c-2 -2 -33 -6 -69 -10 -58 -5 -191 -26 -274 -41 -51 -10
-239 -63 -311 -88 -709 -247 -1287 -811 -1551 -1514 -35 -94 -97 -302 -108
-360 -2 -15 -9 -53 -15 -83 -29 -159 -36 -244 -35 -470 0 -113 4 -234 8 -270
5 -36 10 -72 11 -80 23 -192 108 -485 195 -678 176 -391 434 -721 771 -984
333 -259 758 -445 1154 -504 22 -3 51 -8 65 -10 121 -20 470 -26 610 -11 116
13 118 13 235 36 538 103 1054 399 1420 813 131 148 254 323 329 468 22 41 47
89 56 105 94 172 207 539 236 770 3 28 8 61 10 75 9 50 12 457 4 525 -17 137
-22 175 -35 235 -3 14 -10 46 -15 71 -23 115 -94 335 -148 461 -199 456 -507
827 -924 1112 -53 36 -100 66 -104 66 -4 0 -15 6 -23 14 -20 18 -257 137 -331
166 -142 57 -380 128 -490 146 -14 2 -38 6 -55 9 -16 3 -50 8 -75 11 -25 3
-56 8 -70 11 -28 5 -466 14 -471 9z m401 -969 c14 -2 45 -7 70 -12 258 -44
523 -165 732 -337 208 -170 363 -379 468 -633 22 -55 41 -101 41 -102 0 -2 1
-8 4 -15 25 -83 49 -189 63 -281 13 -95 6 -385 -12 -487 -23 -128 -78 -293
-137 -418 l-49 -102 -28 14 c-15 8 -207 118 -426 245 -220 127 -403 231 -408
231 -4 0 -8 5 -8 10 0 6 -4 10 -9 10 -5 0 -92 48 -193 106 -101 58 -202 117
-226 130 -23 13 -54 31 -67 40 l-25 16 0 -153 c-1 -85 -1 -446 -2 -802 l-2
-648 -85 5 c-100 6 -179 15 -203 22 -10 3 -30 7 -45 10 -134 23 -341 106 -508
205 -174 102 -392 320 -507 504 -103 166 -186 375 -222 565 -29 152 -28 431 2
585 66 332 215 612 452 845 172 169 362 287 615 379 50 18 234 60 294 67 31 3
57 8 59 9 5 5 333 -2 362 -8z"/>
</g>
</svg>
